<?xml version="1.0" standalone="no"?>
<!DOCTYPE svg PUBLIC "-//W3C//DTD SVG 20010904//EN"
 "http://www.w3.org/TR/2001/REC-SVG-20010904/DTD/svg10.dtd">
<svg version="1.0" xmlns="http://www.w3.org/2000/svg"
 width="700.000000pt" height="700.000000pt" viewBox="0 0 700.000000 700.000000"
 preserveAspectRatio="xMidYMid meet">
<metadata>
Created by potrace 1.14, written by Peter Selinger 2001-2017
</metadata>
<g transform="translate(0.000000,700.000000) scale(0.100000,-0.100000)"
fill="#000000" stroke="none">
<path d="M1263 6696 c-117 -43 -209 -131 -255 -246 -22 -54 -23 -65 -26 -525
l-3 -469 -82 -86 c-95 -99 -163 -207 -276 -435 -145 -292 -233 -553 -286 -842
-42 -231 -53 -369 -49 -633 2 -129 5 -248 7 -265 3 -16 8 -59 12 -95 4 -36 8
-67 10 -70 2 -3 6 -30 10 -60 14 -117 80 -377 134 -532 378 -1070 1286 -1864
2391 -2092 41 -8 91 -18 110 -21 19 -3 46 -7 60 -10 14 -3 50 -7 80 -11 30 -3
73 -8 95 -11 22 -2 144 -6 270 -7 386 -6 658 35 1030 151 350 110 787 351
1059 583 16 14 52 45 80 68 94 81 279 276 378 400 165 206 282 393 394 627 35
74 64 136 64 138 0 3 8 22 17 43 9 22 18 44 20 49 1 6 21 62 43 125 58 166 96
322 134 550 38 221 43 676 11 890 -63 419 -163 736 -334 1065 -173 331 -340
557 -610 824 -340 334 -747 588 -1196 744 -103 36 -238 75 -284 83 -14 3 -51
11 -81 19 -30 7 -71 16 -90 19 -19 3 -46 8 -60 11 -35 7 -89 14 -235 31 -136
16 -588 8 -709 -11 -11 -2 -39 -6 -61 -10 -241 -35 -481 -99 -720 -192 -111
-43 -327 -148 -418 -203 -38 -23 -70 -40 -73 -38 -2 2 -4 29 -5 59 -5 167
-114 320 -271 381 -79 31 -204 33 -285 4z m216 -283 c59 -43 61 -58 61 -406
l0 -317 110 89 c459 370 979 584 1575 648 138 15 538 8 655 -11 14 -3 59 -10
100 -16 418 -65 870 -252 1220 -504 534 -384 920 -917 1111 -1535 34 -108 30
-94 68 -276 46 -218 56 -327 56 -590 0 -178 -7 -309 -19 -371 -2 -12 -7 -45
-11 -75 -30 -239 -136 -572 -264 -834 -157 -319 -315 -540 -566 -790 -306
-306 -634 -520 -1025 -670 -162 -62 -366 -121 -483 -140 -17 -3 -54 -10 -82
-15 -51 -10 -88 -14 -230 -28 -97 -9 -457 -8 -540 1 -500 56 -921 206 -1335
476 -47 30 -87 58 -90 61 -3 4 -12 11 -21 16 -58 32 -281 227 -385 336 -302
316 -524 678 -665 1087 -32 92 -70 223 -83 286 -1 6 -5 24 -9 40 -4 17 -8 41
-11 55 -2 14 -9 52 -14 85 -31 173 -37 250 -37 475 0 186 6 312 19 380 2 14 7
48 11 75 30 240 122 540 260 842 l28 61 123 -61 c68 -34 124 -65 124 -69 0 -3
-20 -48 -44 -100 -123 -263 -207 -574 -234 -863 -9 -101 -8 -451 1 -530 4 -33
10 -80 13 -105 3 -25 7 -52 9 -60 2 -8 7 -31 10 -50 12 -72 56 -239 90 -344
262 -790 876 -1409 1670 -1684 121 -42 314 -90 432 -108 21 -3 49 -7 63 -10
77 -13 196 -19 360 -19 162 1 355 11 370 20 3 1 28 6 55 9 28 4 100 18 160 31
821 183 1528 772 1859 1548 84 198 160 458 182 622 3 28 8 59 10 70 19 94 26
483 11 625 -7 62 -35 237 -51 315 -10 51 -38 149 -70 246 -148 449 -414 850
-776 1170 -81 71 -276 218 -319 240 -14 8 -44 26 -66 40 -170 112 -494 245
-740 304 -112 27 -131 31 -305 56 -135 20 -616 16 -683 -6 -7 -2 -31 -6 -54
-9 -128 -16 -453 -106 -587 -163 -131 -56 -348 -173 -463 -250 -120 -80 -327
-242 -320 -249 2 -2 161 -4 354 -4 346 -1 352 -1 385 -23 38 -26 68 -79 68
-122 0 -40 -32 -90 -72 -115 -32 -19 -52 -20 -610 -20 l-578 0 0 579 0 578 23
34 c45 67 135 86 196 42z m2092 -553 c32 -15 65 -73 68 -120 3 -48 -44 -114
-94 -130 -124 -41 -231 97 -160 206 39 60 113 77 186 44z m1134 -310 c76 -47
85 -156 19 -217 -33 -30 -46 -35 -94 -36 -96 -3 -166 103 -125 192 34 76 129
105 200 61z m813 -820 c45 -28 74 -93 63 -140 -13 -54 -20 -65 -51 -88 -58
-43 -132 -38 -182 14 -84 85 -28 228 91 232 31 2 56 -4 79 -18z m-1705 -155
c2 -5 3 -449 3 -985 l-1 -975 -152 -2 -153 -2 0 824 c0 454 -4 825 -8 825 -8
0 -419 -286 -474 -329 -14 -12 -29 -21 -32 -21 -4 0 -6 69 -5 154 l1 155 97
67 c53 37 119 84 146 104 141 103 262 186 279 190 36 10 296 6 299 -5z m-2482
-955 c61 -28 85 -140 43 -197 -79 -108 -242 -62 -250 72 -5 81 64 150 141 141
22 -2 52 -10 66 -16z m4489 -7 c18 -10 36 -34 46 -59 27 -70 4 -136 -59 -174
-40 -25 -82 -25 -126 -2 -100 50 -105 183 -9 242 39 24 101 21 148 -7z m-4215
-1095 c146 -59 94 -281 -62 -265 -100 10 -154 103 -112 191 32 68 108 101 174
74z m3895 -29 c46 -26 70 -66 70 -116 0 -137 -170 -195 -249 -84 -31 43 -33
92 -8 142 38 74 115 98 187 58z m-3082 -794 c78 -32 109 -113 72 -189 -77
-161 -316 -47 -246 117 17 41 42 63 86 75 48 14 45 14 88 -3z m2259 -26 c114
-71 70 -246 -64 -254 -109 -7 -179 99 -130 196 37 75 125 101 194 58z m-1106
-289 c33 -15 65 -73 68 -121 2 -48 -45 -113 -94 -129 -123 -41 -231 98 -161
205 40 61 114 78 187 45z"/>
</g>
</svg>
